{"asset":{"generator":"Khronos glTF Blender I/O v1.3.48","version":"2.0"},"scene":0,"scenes":[{"name":"Scene","nodes":[0,1,17]}],"nodes":[{"name":"Light","rotation":[0.16907575726509094,0.7558803558349609,-0.27217137813568115,0.570947527885437],"translation":[4.076245307922363,5.903861999511719,-1.0054539442062378]},{"name":"Camera","rotation":[0.483536034822464,0.33687159419059753,-0.20870360732078552,0.7804827094078064],"translation":[7.358891487121582,4.958309173583984,6.925790786743164]},{"mesh":0,"name":"Body1.002","scale":[10,10,10]},{"mesh":1,"name":"Body1.001","scale":[10,10,10]},{"mesh":2,"name":"Body2.001","scale":[10,10,10]},{"mesh":3,"name":"Body3","scale":[10,10,10]},{"mesh":4,"name":"Body4","scale":[10,10,10]},{"mesh":5,"name":"Body5","scale":[10,10,10]},{"mesh":6,"name":"Body6","scale":[10,10,10]},{"mesh":7,"name":"Body1","scale":[10,10,10]},{"mesh":8,"name":"Body2","scale":[10,10,10]},{"children":[9,10],"name":"Component3"},{"children":[11],"name":"Component3:1"},{"children":[4,5,6,7,8,12],"name":"Com"},{"children":[13],"name":"Com:1"},{"children":[3,14],"name":"s1"},{"children":[15],"name":"s1:1"},{"children":[2,16],"name":"Sphere v3","rotation":[0.7071068286895752,0,0,0.7071067094802856],"scale":[0.0010000000474974513,0.0010000000474974513,0.0010000000474974513]}],"materials":[{"doubleSided":true,"emissiveFactor":[0,0,0],"name":"Aluminum - Anodized Glossy (Red)","pbrMetallicRoughness":{"baseColorFactor":[0.8549019694328308,0.3490196168422699,0.3490196168422699,1],"metallicFactor":1,"roughnessFactor":0.5527864098548889}},{"doubleSided":true,"emissiveFactor":[0,0,0],"name":"Aluminum - Anodized Glossy (Blue)","pbrMetallicRoughness":{"baseColorFactor":[0.3490196168422699,0.5843137502670288,0.8549019694328308,1],"metallicFactor":1,"roughnessFactor":0.5527864098548889}},{"doubleSided":true,"emissiveFactor":[0,0,0],"name":"Glass (Clear)","pbrMetallicRoughness":{"baseColorFactor":[0.9647058844566345,0.9647058844566345,0.9529411792755127,1],"metallicFactor":1,"roughnessFactor":0.5527864098548889}}],"meshes":[{"name":"Body1.002","primitives":[{"attributes":{"POSITION":0,"NORMAL":1,"TEXCOORD_0":2},"indices":3,"material":0}]},{"name":"Body1.001","primitives":[{"attributes":{"POSITION":4,"NORMAL":5,"TEXCOORD_0":6},"indices":7,"material":1}]},{"name":"Body2.001","primitives":[{"attributes":{"POSITION":8,"NORMAL":9,"TEXCOORD_0":10},"indices":3,"material":1}]},{"name":"Body3","primitives":[{"attributes":{"POSITION":11,"NORMAL":12,"TEXCOORD_0":13},"indices":7,"material":1}]},{"name":"Body4","primitives":[{"attributes":{"POSITION":14,"NORMAL":15,"TEXCOORD_0":16},"indices":7,"material":1}]},{"name":"Body5","primitives":[{"attributes":{"POSITION":17,"NORMAL":18,"TEXCOORD_0":19},"indices":20,"material":1}]},{"name":"Body6","primitives":[{"attributes":{"POSITION":21,"NORMAL":22,"TEXCOORD_0":23},"indices":20,"material":1}]},{"name":"Body1","primitives":[{"attributes":{"POSITION":24,"NORMAL":25,"TEXCOORD_0":26},"indices":27,"material":2}]},{"name":"Body2","primitives":[{"attributes":{"POSITION":28,"NORMAL":29,"TEXCOORD_0":30},"indices":31,"material":2}]}],"accessors":[{"bufferView":0,"componentType":5126,"count":2077,"max":[2,2,1.9997634887695312],"min":[-2,-2,-1.9997634887695312],"type":"VEC3"},{"bufferView":1,"componentType":5126,"count":2077,"type":"VEC3"},{"bufferView":2,"componentType":5126,"count":2077,"type":"VEC2"},{"bufferView":3,"componentType":5123,"count":11532,"type":"SCALAR"},{"bufferView":4,"componentType":5126,"count":2078,"max":[-4,1,0.9998817443847656],"min":[-6,-1,-0.9998817443847656],"type":"VEC3"},{"bufferView":5,"componentType":5126,"count":2078,"type":"VEC3"},{"bufferView":6,"componentType":5126,"count":2078,"type":"VEC2"},{"bufferView":7,"componentType":5123,"count":11532,"type":"SCALAR"},{"bufferView":8,"componentType":5126,"count":2077,"max":[-7,1,0.9998817443847656],"min":[-9,-1,-0.9998817443847656],"type":"VEC3"},{"bufferView":9,"componentType":5126,"count":2077,"type":"VEC3"},{"bufferView":10,"componentType":5126,"count":2077,"type":"VEC2"},{"bufferView":11,"componentType":5126,"count":2078,"max":[6,1,0.9998817443847656],"min":[4,-1,-0.9998817443847656],"type":"VEC3"},{"bufferView":12,"componentType":5126,"count":2078,"type":"VEC3"},{"bufferView":13,"componentType":5126,"count":2078,"type":"VEC2"},{"bufferView":14,"componentType":5126,"count":2078,"max":[9,1,0.9998817443847656],"min":[7,-1,-0.9998817443847656],"type":"VEC3"},{"bufferView":15,"componentType":5126,"count":2078,"type":"VEC3"},{"bufferView":16,"componentType":5126,"count":2078,"type":"VEC2"},{"bufferView":17,"componentType":5126,"count":2108,"max":[1,1,8.999881744384766],"min":[-1,-1,7.000118255615234],"type":"VEC3"},{"bufferView":18,"componentType":5126,"count":2108,"type":"VEC3"},{"bufferView":19,"componentType":5126,"count":2108,"type":"VEC2"},{"bufferView":20,"componentType":5123,"count":11532,"type":"SCALAR"},{"bufferView":21,"componentType":5126,"count":2108,"max":[1,1,-7.000118255615234],"min":[-1,-1,-8.999881744384766],"type":"VEC3"},{"bufferView":22,"componentType":5126,"count":2108,"type":"VEC3"},{"bufferView":23,"componentType":5126,"count":2108,"type":"VEC2"},{"bufferView":24,"componentType":5126,"count":2331,"max":[5.150000095367432,0.15000000596046448,5.150000095367432],"min":[-5.150000095367432,-0.15000000596046448,-5.150000095367432],"type":"VEC3"},{"bufferView":25,"componentType":5126,"count":2331,"type":"VEC3"},{"bufferView":26,"componentType":5126,"count":2331,"type":"VEC2"},{"bufferView":27,"componentType":5123,"count":13032,"type":"SCALAR"},{"bufferView":28,"componentType":5126,"count":2331,"max":[8.149999618530273,0.15000000596046448,8.149999618530273],"min":[-8.149999618530273,-0.15000000596046448,-8.149999618530273],"type":"VEC3"},{"bufferView":29,"componentType":5126,"count":2331,"type":"VEC3"},{"bufferView":30,"componentType":5126,"count":2331,"type":"VEC2"},{"bufferView":31,"componentType":5123,"count":13032,"type":"SCALAR"}],"bufferViews":[{"buffer":0,"byteLength":24924,"byteOffset":0},{"buffer":0,"byteLength":24924,"byteOffset":24924},{"buffer":0,"byteLength":16616,"byteOffset":49848},{"buffer":0,"byteLength":23064,"byteOffset":66464},{"buffer":0,"byteLength":24936,"byteOffset":89528},{"buffer":0,"byteLength":24936,"byteOffset":114464},{"buffer":0,"byteLength":16624,"byteOffset":139400},{"buffer":0,"byteLength":23064,"byteOffset":156024},{"buffer":0,"byteLength":24924,"byteOffset":179088},{"buffer":0,"byteLength":24924,"byteOffset":204012},{"buffer":0,"byteLength":16616,"byteOffset":228936},{"buffer":0,"byteLength":24936,"byteOffset":245552},{"buffer":0,"byteLength":24936,"byteOffset":270488},{"buffer":0,"byteLength":16624,"byteOffset":295424},{"buffer":0,"byteLength":24936,"byteOffset":312048},{"buffer":0,"byteLength":24936,"byteOffset":336984},{"buffer":0,"byteLength":16624,"byteOffset":361920},{"buffer":0,"byteLength":25296,"byteOffset":378544},{"buffer":0,"byteLength":25296,"byteOffset":403840},{"buffer":0,"byteLength":16864,"byteOffset":429136},{"buffer":0,"byteLength":23064,"byteOffset":446000},{"buffer":0,"byteLength":25296,"byteOffset":469064},{"buffer":0,"byteLength":25296,"byteOffset":494360},{"buffer":0,"byteLength":16864,"byteOffset":519656},{"buffer":0,"byteLength":27972,"byteOffset":536520},{"buffer":0,"byteLength":27972,"byteOffset":564492},{"buffer":0,"byteLength":18648,"byteOffset":592464},{"buffer":0,"byteLength":26064,"byteOffset":611112},{"buffer":0,"byteLength":27972,"byteOffset":637176},{"buffer":0,"byteLength":27972,"byteOffset":665148},{"buffer":0,"byteLength":18648,"byteOffset":693120},{"buffer":0,"byteLength":26064,"byteOffset":711768}],"buffers":[{"byteLength":737832,"uri":"data:application/octet-stream;base64,"}]}